# xmcd CD database file
#
# Track frame offsets:
#	150
#	25850
#	46465
#	81637
#	100735
#	113340
#	140767
#	158777
#	196797
#	216212
#	236605
#	256330
#	274657
#
# Disc length: 3974 seconds
#
# Revision: 1
# Processed by: cddbd v1.5.1PL2 Copyright (c) Steve Scherf et al.
# Submitted via: CDex 1.51
#
DISCID=b00f840d
DTITLE=Monic Kersten - Land of dreams
DYEAR=2002
DGENRE=Jazz
TTITLE0=Love changes
TTITLE1=Knocks me off my feet
TTITLE2=Round midnight
TTITLE3=Get up - Groovin' high
TTITLE4=Never will I marry
TTITLE5=So many stars
TTITLE6=Hear me calling
TTITLE7=Spring can really hang you up the most
TTITLE8=Heaven
TTITLE9=Ruthie
TTITLE10=Bluebird - Perdido
TTITLE11=Beyond the clouds
TTITLE12=Land of dreams
EXTD=YEAR: 2002
EXTT0=
EXTT1=
EXTT2=
EXTT3=
EXTT4=
EXTT5=
EXTT6=
EXTT7=
EXTT8=
EXTT9=
EXTT10=
EXTT11=
EXTT12=
PLAYORDER=
